<svg xmlns="http://www.w3.org/2000/svg" xmlns:xlink="http://www.w3.org/1999/xlink" width="1000" zoomAndPan="magnify" viewBox="0 0 750 749.999995" height="1000" preserveAspectRatio="xMidYMid meet" version="1.0"><defs><clipPath id="ac6c2189e2"><path d="M -238.234375 522.828125 L 260.167969 -271.214844 L 1054.207031 227.1875 L 555.808594 1021.230469 Z M -238.234375 522.828125 " clip-rule="nonzero"/></clipPath><clipPath id="07c0efa643"><path d="M 43 6 L 720 6 L 720 739 L 43 739 Z M 43 6 " clip-rule="nonzero"/></clipPath><clipPath id="8f7b00a067"><path d="M -238.234375 522.828125 L 260.167969 -271.214844 L 1054.207031 227.1875 L 555.808594 1021.230469 Z M -238.234375 522.828125 " clip-rule="nonzero"/></clipPath><clipPath id="bedf7889aa"><path d="M 260.203125 -271.273438 L -238.195312 522.769531 L 555.84375 1021.171875 L 1054.246094 227.128906 Z M 260.203125 -271.273438 " clip-rule="nonzero"/></clipPath><clipPath id="0cd058b8e6"><rect x="0" width="750" y="0" height="750"/></clipPath><clipPath id="881f28f274"><path d="M 418 286 L 518.289062 286 L 518.289062 388 L 418 388 Z M 418 286 " clip-rule="nonzero"/></clipPath></defs><g clip-path="url(#ac6c2189e2)"><g transform="matrix(1, 0, 0, 1, 0, -0.000000000000042435)"><g clip-path="url(#0cd058b8e6)"><g clip-path="url(#07c0efa643)"><g clip-path="url(#8f7b00a067)"><g clip-path="url(#bedf7889aa)"><path fill="#8e51ff" d="M 545.097656 455.382812 L 633.449219 510.839844 C 642 494.023438 651.570312 478.089844 658.507812 461.078125 C 705.019531 347.03125 699.984375 234.96875 636.199219 129.601562 C 584.640625 44.414062 504.328125 3.292969 405.046875 6.164062 C 266.488281 10.164062 160.566406 73.648438 91.109375 193.605469 C 5.1875 341.96875 39.792969 536.828125 170.289062 647.886719 C 267.011719 730.195312 378.28125 756.863281 501.488281 726.667969 C 592.496094 704.367188 663.800781 652 716.171875 574.117188 C 717.222656 572.550781 718.1875 570.910156 719.09375 569.253906 C 719.375 568.734375 719.328125 568.03125 719.546875 566.714844 L 632.910156 512.335938 C 625.921875 521.566406 619.171875 530.921875 611.972656 539.910156 C 541.71875 627.496094 411.171875 658.894531 308.164062 613.203125 C 227.800781 577.5625 176.335938 516.832031 155.953125 431.832031 C 136.386719 350.253906 153.609375 274.566406 205.835938 209.117188 C 255.113281 147.363281 320.039062 111.84375 400.367188 112.097656 C 488.902344 112.375 565.433594 181.144531 579.773438 268.609375 C 588.542969 322.097656 583.378906 373.476562 561.476562 423.046875 C 556.671875 433.910156 550.75 444.296875 545.097656 455.382812 Z M 545.097656 455.382812 " fill-opacity="1" fill-rule="nonzero"/></g></g></g></g></g></g><path fill="#8e51ff" d="M 442.15625 412.410156 C 441.929688 412.21875 441.679688 412.058594 441.421875 411.921875 L 441.226562 411.828125 C 441.164062 411.796875 441.097656 411.765625 441.03125 411.742188 L 440.832031 411.664062 C 440.761719 411.640625 440.726562 411.628906 440.675781 411.613281 C 423.941406 406.074219 407.28125 400.300781 390.765625 394.148438 C 378.222656 389.542969 367.8125 379.511719 362.824219 367.109375 C 362.445312 366.195312 362.097656 365.238281 361.773438 364.296875 C 357.496094 351.542969 351.972656 334.613281 347.710938 321.789062 C 347.238281 320.347656 345.816406 316.171875 345.367188 314.816406 C 345.367188 314.816406 345.167969 314.234375 345.167969 314.234375 C 344.746094 312.816406 343.800781 311.535156 342.484375 310.78125 C 340.382812 309.53125 337.550781 309.753906 335.671875 311.328125 C 334.957031 311.910156 334.382812 312.671875 334.007812 313.515625 C 332.261719 317.863281 330.539062 322.285156 328.84375 326.652344 C 324.203125 338.664062 319.417969 351.273438 314.910156 363.324219 C 312.777344 369 309.566406 374.265625 305.46875 378.738281 C 300.867188 383.785156 295.167969 387.820312 288.875 390.472656 C 287.335938 391.132812 283.78125 392.425781 282.136719 393.066406 C 268.597656 398.230469 250.976562 404.90625 237.503906 410.078125 C 233.71875 411.617188 232.585938 416.464844 235.210938 419.554688 C 235.898438 420.375 236.84375 420.988281 237.851562 421.335938 C 254.371094 427.207031 271.234375 432.984375 287.808594 438.65625 C 290.785156 439.683594 293.675781 440.992188 296.414062 442.578125 C 304.675781 447.34375 311.460938 454.652344 315.609375 463.25 C 316.214844 464.503906 316.777344 465.792969 317.273438 467.097656 C 323.425781 483.285156 329.449219 499.6875 335.128906 516.042969 C 335.257812 516.398438 335.4375 516.957031 335.585938 517.296875 C 336.605469 519.628906 339.453125 520.539062 341.6875 519.390625 C 342.441406 519.007812 343.078125 518.390625 343.5 517.65625 L 343.609375 517.453125 C 343.644531 517.386719 343.675781 517.320312 343.707031 517.25 L 343.792969 517.046875 L 343.914062 516.746094 C 350.367188 500.496094 357.121094 484.050781 363.445312 467.769531 C 364.574219 464.898438 365.964844 462.136719 367.59375 459.527344 C 371.667969 453.015625 377.292969 447.488281 383.871094 443.527344 C 386.003906 442.234375 388.246094 441.113281 390.550781 440.15625 C 406.238281 434.132812 422.171875 427.679688 437.722656 421.257812 L 439.992188 420.324219 L 440.558594 420.09375 L 440.839844 419.976562 C 441.539062 419.699219 442.191406 419.261719 442.683594 418.671875 C 444.253906 416.847656 444.023438 413.921875 442.15625 412.40625 Z M 442.15625 412.410156 " fill-opacity="1" fill-rule="nonzero"/><path fill="#8e51ff" d="M 338.734375 272.507812 C 338.996094 272.71875 339.304688 272.878906 339.613281 272.984375 C 344.328125 274.582031 349.066406 276.117188 353.796875 277.660156 C 356.011719 278.386719 358.144531 279.386719 360.105469 280.648438 C 364.570312 283.5 368.15625 287.722656 370.261719 292.585938 C 370.960938 294.242188 371.527344 295.953125 372.136719 297.644531 C 373.378906 301.164062 374.566406 304.703125 375.714844 308.257812 C 375.824219 308.578125 376.007812 308.882812 376.265625 309.125 C 377.28125 310.085938 378.980469 309.808594 379.640625 308.589844 C 381.65625 303.902344 383.628906 299.191406 385.535156 294.460938 C 388.28125 287.601562 393.648438 281.882812 400.292969 278.660156 C 400.671875 278.480469 401.070312 278.289062 401.460938 278.121094 C 404 277.042969 409.222656 274.777344 411.839844 273.628906 L 415.164062 272.1875 C 415.296875 272.128906 415.5 272.046875 415.625 271.984375 C 416.765625 271.441406 416.9375 269.839844 415.949219 269.074219 C 415.78125 268.945312 415.585938 268.851562 415.386719 268.789062 C 410.644531 267.277344 405.9375 265.65625 401.273438 263.917969 C 393.996094 261.25 388.113281 255.253906 385.511719 247.972656 C 385.316406 247.429688 385.128906 246.867188 384.960938 246.3125 C 383.503906 241.5625 382.023438 236.617188 380.414062 231.929688 C 379.289062 229.449219 375.765625 229.601562 374.804688 232.125 C 373.441406 235.519531 372.011719 239.292969 370.6875 242.71875 C 369.871094 244.816406 369.089844 247.167969 368.035156 249.15625 C 365.015625 255 359.867188 259.71875 353.75 262.152344 C 349.617188 263.777344 343.65625 266.050781 339.542969 267.691406 C 339.113281 267.855469 338.730469 268.109375 338.410156 268.464844 C 337.355469 269.632812 337.503906 271.535156 338.734375 272.507812 Z M 338.734375 272.507812 " fill-opacity="1" fill-rule="nonzero"/><g clip-path="url(#881f28f274)"><path fill="#8e51ff" d="M 516.535156 335.441406 C 510.527344 333.601562 504.570312 331.609375 498.6875 329.40625 C 489.625 326.085938 482.359375 318.519531 479.292969 309.398438 C 478.777344 307.941406 477.863281 304.515625 477.394531 302.964844 C 476.109375 298.519531 474.78125 294.089844 473.363281 289.6875 C 473.320312 289.546875 473.257812 289.367188 473.1875 289.214844 C 471.511719 285.527344 466.296875 285.792969 464.90625 289.558594 C 462.570312 295.324219 460.320312 301.121094 458.109375 306.9375 C 457.625 308.214844 457.066406 309.460938 456.433594 310.667969 C 453.289062 316.734375 448.300781 321.839844 442.273438 325.074219 C 441.367188 325.566406 440.433594 326.011719 439.488281 326.417969 C 438.785156 326.707031 435.128906 328.160156 434.304688 328.472656 C 431.0625 329.75 424.085938 332.476562 420.972656 333.757812 C 419.441406 334.453125 418.464844 336.140625 418.617188 337.8125 C 418.722656 339.402344 419.859375 340.867188 421.382812 341.347656 C 427.292969 343.296875 433.238281 345.152344 439.179688 347.019531 C 441.929688 347.886719 444.585938 349.089844 447.03125 350.632812 C 452.601562 354.121094 457.089844 359.355469 459.699219 365.394531 C 459.910156 365.894531 460.128906 366.410156 460.316406 366.925781 C 462.457031 372.765625 464.414062 378.671875 466.265625 384.609375 C 466.3125 384.75 466.382812 384.988281 466.433594 385.121094 C 467.230469 387.289062 470.113281 387.738281 471.597656 386.007812 C 471.851562 385.722656 472.035156 385.375 472.179688 385.027344 L 472.40625 384.507812 C 474.820312 378.972656 477.265625 373.445312 479.546875 367.859375 C 480.085938 366.570312 480.6875 365.3125 481.359375 364.09375 C 482.027344 362.875 482.761719 361.691406 483.558594 360.558594 C 487.46875 354.996094 492.890625 350.519531 499.085938 347.71875 C 504.707031 345.25 510.769531 342.4375 516.367188 339.917969 L 516.5 339.863281 L 516.589844 339.820312 C 516.925781 339.671875 517.226562 339.449219 517.472656 339.164062 C 518.507812 337.941406 518.039062 335.984375 516.535156 335.441406 Z M 516.535156 335.441406 " fill-opacity="1" fill-rule="nonzero"/></g></svg>