<svg width="886" height="168" viewBox="0 0 886 168" fill="none" xmlns="http://www.w3.org/2000/svg">
<g clip-path="url(#clip0_995_935)">
<path d="M44.5938 84.604C44.5938 80.3928 48.0076 76.9766 52.2187 76.9766C56.4299 76.9766 59.8437 80.3928 59.8437 84.604C59.8437 88.8151 56.4299 92.2314 52.2187 92.2314C48.0076 92.2314 44.5938 88.8151 44.5938 84.604Z" fill="#8E51FF"/>
<path d="M65.4297 84.604C65.4297 80.3928 68.8435 76.9766 73.0547 76.9766C77.2658 76.9766 80.6796 80.3928 80.6796 84.604C80.6796 88.8151 77.2658 92.2314 73.0547 92.2314C68.8435 92.2314 65.4297 88.8151 65.4297 84.604Z" fill="#8E51FF"/>
<path d="M86.1641 84.604C86.1641 80.3928 89.5779 76.9766 93.789 76.9766C98.0002 76.9766 101.414 80.3928 101.414 84.604C101.414 88.8151 98.0002 92.2314 93.789 92.2314C89.5779 92.2314 86.1641 88.8151 86.1641 84.604Z" fill="#8E51FF"/>
<path d="M114.899 103.033L135.155 115.749C137.116 111.894 139.311 108.243 140.903 104.339C151.565 78.1897 150.414 52.4964 135.786 28.3373C123.964 8.80516 105.548 -0.623489 82.7875 0.0319508C51.0156 0.949568 26.7303 15.5052 10.8055 43.0095C-8.89658 77.0293 -0.963312 121.711 28.9588 147.171C51.137 166.048 76.6506 172.161 104.898 165.237C125.765 160.125 142.117 148.118 154.124 130.261C154.367 129.902 154.585 129.523 154.794 129.144C154.857 129.023 154.847 128.863 154.896 128.562L135.033 116.094C133.431 118.21 131.882 120.356 130.232 122.415C114.122 142.501 84.1906 149.696 60.5705 139.223C42.1453 131.047 30.3474 117.123 25.6719 97.6344C21.1857 78.9277 25.133 61.5755 37.1105 46.5683C48.4084 32.4107 63.2942 24.2639 81.7145 24.3221C102.014 24.3852 119.56 40.1547 122.852 60.2112C124.862 72.4752 123.677 84.2537 118.652 95.6196C117.55 98.1102 116.196 100.494 114.899 103.033Z" fill="#8E51FF"/>
<path d="M211.073 41.5293C209.167 41.5293 207.599 42.0085 206.365 42.9668C205.141 43.9147 204.531 45.1126 204.531 46.571C204.531 48.571 205.552 50.2116 207.594 51.4876C209.646 52.7533 213.354 54.0658 218.719 55.4251C227.427 57.6908 233.573 60.6647 237.156 64.3418C240.75 68.0241 242.552 72.7272 242.552 78.446C242.552 83.6283 241.188 88.1491 238.469 92.0085C235.745 95.873 232.042 98.873 227.365 101.008C222.682 103.133 217.479 104.196 211.76 104.196C203.219 104.196 196.156 101.925 190.573 97.3835C184.99 92.8418 181.786 86.7585 180.969 79.1335H203.448C203.807 81.3991 204.74 83.123 206.24 84.3001C207.74 85.4824 209.667 86.071 212.031 86.071C214.115 86.071 215.948 85.5293 217.531 84.446C219.125 83.3522 219.927 81.9408 219.927 80.2168C219.927 78.0397 218.995 76.2689 217.135 74.9043C215.271 73.5449 211.573 72.0033 206.031 70.2793C197.042 67.5605 190.781 64.3783 187.24 60.7376C183.698 57.1022 181.927 52.8783 181.927 48.071C181.927 43.2533 183.286 38.9616 186.01 35.196C188.729 31.4199 192.344 28.5085 196.844 26.4668C201.344 24.4251 206.135 23.4043 211.219 23.4043C219.479 23.4043 226.245 25.5449 231.51 29.821C236.786 34.0866 239.698 39.8991 240.24 47.2585H218.031C217.932 43.4408 215.615 41.5293 211.073 41.5293Z" fill="black"/>
<path d="M307.661 93.446C306.036 96.7116 303.172 99.321 299.078 101.279C294.995 103.222 290.453 104.196 285.453 104.196C278.188 104.196 271.672 102.425 265.911 98.8835C260.146 95.3418 255.646 90.4876 252.411 84.321C249.187 78.1439 247.578 71.2793 247.578 63.7376C247.578 56.3783 249.234 49.6126 252.557 43.446C255.875 37.2689 260.417 32.3835 266.182 28.8001C271.943 25.2064 278.37 23.4043 285.453 23.4043C290.188 23.4043 294.547 24.3366 298.536 26.196C302.536 28.0605 305.578 30.6699 307.661 34.0293H307.953V25.9876H330.557V101.613H307.953V93.446H307.661ZM307.953 63.7376C307.953 60.2793 307.083 57.0814 305.349 54.1335C303.625 51.1751 301.286 48.8366 298.328 47.1126C295.38 45.3939 292.182 44.5293 288.724 44.5293C285.359 44.5293 282.25 45.3939 279.391 47.1126C276.526 48.8366 274.276 51.196 272.641 54.196C271.016 57.196 270.203 60.4668 270.203 64.0085C270.203 67.4564 271.042 70.6335 272.724 73.5501C274.401 76.4564 276.672 78.7741 279.536 80.5085C282.396 82.2324 285.557 83.0918 289.016 83.0918C292.458 83.0918 295.63 82.2324 298.536 80.5085C301.453 78.7741 303.75 76.4355 305.432 73.4876C307.109 70.5293 307.953 67.2793 307.953 63.7376Z" fill="black"/>
<path d="M426.201 44.6543C417.836 44.6543 413.659 49.696 413.659 59.7793V101.613H391.055V59.9251C391.055 49.748 387.284 44.6543 379.742 44.6543C371.201 44.6543 366.93 50.0658 366.93 60.8835V101.613H344.305V25.9876H365.43V34.0293H365.701C369.701 26.946 376.648 23.4043 386.555 23.4043C396.081 23.4043 403.346 27.9043 408.346 36.9043C411.065 32.5449 414.471 29.2064 418.555 26.8835C422.648 24.5658 427.242 23.4043 432.326 23.4043C441.044 23.4043 447.898 26.0866 452.888 31.446C457.888 36.8105 460.388 44.623 460.388 54.8835V101.613H437.784V60.8835C437.784 55.0658 436.852 50.9043 434.992 48.4043C433.128 45.9043 430.201 44.6543 426.201 44.6543Z" fill="black"/>
<path d="M496.211 0.779297V31.9876C501.57 26.2689 508.742 23.4043 517.732 23.4043C524.367 23.4043 530.57 25.0189 536.336 28.2376C542.096 31.4616 546.701 36.0918 550.148 42.1335C553.607 48.1751 555.336 55.2376 555.336 63.321C555.336 71.0449 553.763 78.0189 550.628 84.2376C547.503 90.4616 543.055 95.3418 537.294 98.8835C531.529 102.425 524.826 104.196 517.19 104.196C512.565 104.196 508.232 103.222 504.19 101.279C500.148 99.321 497.258 96.7533 495.523 93.571H495.253V101.613H473.586V0.779297H496.211ZM532.732 63.7376C532.732 60.3783 531.93 57.2272 530.336 54.2793C528.753 51.321 526.529 48.9616 523.669 47.196C520.805 45.4199 517.607 44.5293 514.065 44.5293C510.607 44.5293 507.445 45.3939 504.586 47.1126C501.721 48.8366 499.471 51.1543 497.836 54.071C496.211 56.9772 495.398 60.1491 495.398 63.5918C495.398 69.1335 497.138 73.7741 500.628 77.5085C504.128 81.2324 508.513 83.0918 513.794 83.0918C517.237 83.0918 520.409 82.2324 523.315 80.5085C526.232 78.7741 528.529 76.4355 530.211 73.4876C531.888 70.5293 532.732 67.2793 532.732 63.7376Z" fill="black"/>
<path d="M621.818 93.446C620.193 96.7116 617.328 99.321 613.234 101.279C609.151 103.222 604.609 104.196 599.609 104.196C592.344 104.196 585.828 102.425 580.068 98.8835C574.302 95.3418 569.802 90.4876 566.568 84.321C563.344 78.1439 561.734 71.2793 561.734 63.7376C561.734 56.3783 563.391 49.6126 566.714 43.446C570.031 37.2689 574.573 32.3835 580.339 28.8001C586.099 25.2064 592.526 23.4043 599.609 23.4043C604.344 23.4043 608.703 24.3366 612.693 26.196C616.693 28.0605 619.734 30.6699 621.818 34.0293H622.109V25.9876H644.714V101.613H622.109V93.446H621.818ZM622.109 63.7376C622.109 60.2793 621.24 57.0814 619.505 54.1335C617.781 51.1751 615.443 48.8366 612.484 47.1126C609.536 45.3939 606.339 44.5293 602.88 44.5293C599.516 44.5293 596.406 45.3939 593.547 47.1126C590.682 48.8366 588.432 51.196 586.797 54.196C585.172 57.196 584.359 60.4668 584.359 64.0085C584.359 67.4564 585.198 70.6335 586.88 73.5501C588.557 76.4564 590.828 78.7741 593.693 80.5085C596.552 82.2324 599.714 83.0918 603.172 83.0918C606.615 83.0918 609.786 82.2324 612.693 80.5085C615.609 78.7741 617.906 76.4355 619.589 73.4876C621.266 70.5293 622.109 67.2793 622.109 63.7376Z" fill="black"/>
<path d="M715.414 93.446C711.148 100.529 703.607 104.071 692.789 104.071C685.341 104.071 678.737 102.3 672.977 98.7585C667.211 95.2168 662.758 90.3835 659.622 84.2585C656.482 78.123 654.914 71.2324 654.914 63.5918C654.914 56.1491 656.503 49.3626 659.685 43.2376C662.862 37.1022 667.315 32.2585 673.039 28.7168C678.758 25.1751 685.211 23.4043 692.393 23.4043C696.836 23.4043 700.852 24.1126 704.435 25.5293C708.029 26.9355 711.419 29.2272 714.602 32.4043V0.779297H737.227V101.613H715.685V93.446H715.414ZM715.831 63.4668C715.831 60.0085 715.008 56.8314 713.372 53.9251C711.732 51.0241 709.435 48.7324 706.477 47.0501C703.529 45.373 700.247 44.5293 696.622 44.5293C691.258 44.5293 686.737 46.321 683.06 49.9043C679.378 53.4876 677.539 58.0085 677.539 63.4668C677.539 69.1908 679.331 73.873 682.914 77.5085C686.508 81.1335 691.029 82.946 696.477 82.946C702.018 82.946 706.628 81.0866 710.31 77.3626C713.987 73.6439 715.831 69.0085 715.831 63.4668Z" fill="black"/>
<path d="M766.654 84.4453V101.612H756.57V84.4453H766.654Z" fill="black"/>
<path d="M796.081 0.779297V17.946H786.539V0.779297H796.081ZM796.081 27.0918V101.613H786.539V27.0918H796.081Z" fill="black"/>
<path d="M807.938 64.8197C807.938 57.653 809.708 51.028 813.25 44.9447C816.792 38.8509 821.531 34.028 827.479 30.4863C833.438 26.9447 839.865 25.1738 846.771 25.1738C853.854 25.1738 860.385 26.9759 866.375 30.5697C872.375 34.153 877.125 38.9447 880.625 44.9447C884.125 50.9342 885.875 57.377 885.875 64.278C885.875 71.3613 884.073 77.903 880.479 83.903C876.896 89.8926 872.104 94.6322 866.104 98.1322C860.115 101.632 853.672 103.382 846.771 103.382C839.865 103.382 833.438 101.611 827.479 98.0697C821.531 94.528 816.792 89.8092 813.25 83.903C809.708 78.002 807.938 71.6426 807.938 64.8197ZM876.333 63.8613C876.333 58.5176 875.01 53.5488 872.375 48.9655C869.734 44.3717 866.146 40.6895 861.604 37.9238C857.063 35.1478 852.115 33.7572 846.771 33.7572C841.49 33.7572 836.604 35.1686 832.104 37.9863C827.615 40.8092 824.052 44.5801 821.417 49.2988C818.776 54.0228 817.458 59.153 817.458 64.6947C817.458 70.0592 818.776 75.0592 821.417 79.6947C824.052 84.3197 827.646 87.9967 832.188 90.7155C836.729 93.4395 841.63 94.7988 846.896 94.7988C852.354 94.7988 857.323 93.4186 861.813 90.653C866.313 87.877 869.854 84.127 872.438 79.403C875.031 74.6842 876.333 69.502 876.333 63.8613Z" fill="black"/>
<path d="M194.654 126.744V139.473H194.737C195.789 137.973 197.138 136.796 198.779 135.932C200.43 135.057 202.206 134.619 204.112 134.619C206.43 134.619 208.581 135.176 210.57 136.286C212.555 137.385 214.133 138.9 215.299 140.827C216.477 142.744 217.07 144.88 217.07 147.223C217.07 149.572 216.492 151.718 215.341 153.661C214.201 155.593 212.643 157.114 210.674 158.223C208.716 159.333 206.529 159.89 204.112 159.89C202.206 159.89 200.43 159.479 198.779 158.661C197.138 157.843 195.789 156.656 194.737 155.098H194.654V159.327H191.57V126.744H194.654ZM204.07 137.39C202.331 137.39 200.727 137.843 199.258 138.744C197.799 139.635 196.633 140.838 195.758 142.348C194.893 143.864 194.466 145.515 194.466 147.307C194.466 149.072 194.888 150.713 195.737 152.223C196.596 153.723 197.763 154.921 199.237 155.807C200.721 156.682 202.346 157.119 204.112 157.119C205.997 157.119 207.685 156.692 209.174 155.827C210.674 154.968 211.846 153.796 212.695 152.307C213.555 150.822 213.987 149.171 213.987 147.348C213.987 145.473 213.555 143.781 212.695 142.265C211.846 140.755 210.664 139.567 209.154 138.702C207.638 137.827 205.945 137.39 204.07 137.39Z" fill="black"/>
<path d="M218.391 135.244H221.641L229.307 154.432L237.495 135.244H240.766L226.786 167.786H223.578L227.766 158.536L218.391 135.244Z" fill="black"/>
<path d="M257.872 126.744V139.473H257.956C259.008 137.973 260.357 136.796 261.997 135.932C263.648 135.057 265.424 134.619 267.331 134.619C269.648 134.619 271.799 135.176 273.789 136.286C275.773 137.385 277.352 138.9 278.518 140.827C279.695 142.744 280.289 144.88 280.289 147.223C280.289 149.572 279.711 151.718 278.56 153.661C277.419 155.593 275.862 157.114 273.893 158.223C271.935 159.333 269.747 159.89 267.331 159.89C265.424 159.89 263.648 159.479 261.997 158.661C260.357 157.843 259.008 156.656 257.956 155.098H257.872V159.327H254.789V126.744H257.872ZM267.289 137.39C265.549 137.39 263.945 137.843 262.477 138.744C261.018 139.635 259.852 140.838 258.977 142.348C258.112 143.864 257.685 145.515 257.685 147.307C257.685 149.072 258.107 150.713 258.956 152.223C259.815 153.723 260.982 154.921 262.456 155.807C263.94 156.682 265.565 157.119 267.331 157.119C269.216 157.119 270.904 156.692 272.393 155.827C273.893 154.968 275.065 153.796 275.914 152.307C276.773 150.822 277.206 149.171 277.206 147.348C277.206 145.473 276.773 143.781 275.914 142.265C275.065 140.755 273.883 139.567 272.372 138.702C270.857 137.827 269.164 137.39 267.289 137.39Z" fill="#8E51FF"/>
<path d="M286.88 126.744V159.327H283.797V126.744H286.88Z" fill="#8E51FF"/>
<path d="M313.06 155.098C312.06 156.598 310.732 157.775 309.081 158.619C307.44 159.463 305.633 159.89 303.664 159.89C301.289 159.89 299.107 159.333 297.122 158.223C295.148 157.114 293.586 155.598 292.435 153.682C291.294 151.755 290.727 149.598 290.727 147.223C290.727 144.88 291.31 142.744 292.477 140.827C293.654 138.9 295.232 137.385 297.206 136.286C299.19 135.176 301.341 134.619 303.664 134.619C305.664 134.619 307.482 135.051 309.122 135.911C310.773 136.76 312.086 137.947 313.06 139.473H313.143V135.244H316.227V159.327H313.143V155.098H313.06ZM313.31 147.307C313.31 145.546 312.883 143.9 312.039 142.369C311.19 140.843 310.023 139.635 308.539 138.744C307.049 137.843 305.414 137.39 303.622 137.39C301.799 137.39 300.143 137.827 298.643 138.702C297.143 139.567 295.961 140.755 295.102 142.265C294.237 143.781 293.81 145.473 293.81 147.348C293.81 149.171 294.232 150.827 295.081 152.327C295.924 153.827 297.107 155.005 298.622 155.848C300.133 156.697 301.815 157.119 303.664 157.119C305.424 157.119 307.044 156.682 308.518 155.807C309.987 154.921 311.154 153.734 312.018 152.244C312.878 150.744 313.31 149.098 313.31 147.307Z" fill="#8E51FF"/>
<path d="M331.555 137.39C329.263 137.39 327.43 138.171 326.055 139.723C324.69 141.281 324.013 143.265 324.013 145.682V159.327H320.93V135.244H324.013V138.327H324.117C324.878 137.15 325.914 136.239 327.221 135.598C328.523 134.947 329.956 134.619 331.513 134.619C333.68 134.619 335.56 135.093 337.159 136.036C338.768 136.968 339.997 138.286 340.846 139.994C341.69 141.702 342.117 143.671 342.117 145.89V159.327H339.034V145.89C339.034 144.13 338.706 142.609 338.055 141.327C337.414 140.051 336.518 139.077 335.367 138.411C334.227 137.734 332.956 137.39 331.555 137.39Z" fill="#8E51FF"/>
<path d="M348.253 159.327H344.586L352.836 147.077L344.586 135.244H348.294L354.628 144.536L360.94 135.244H364.669L356.44 147.077L364.669 159.327H361.023L354.628 149.682L348.253 159.327Z" fill="#8E51FF"/>
<path d="M378.513 157.119C380.414 157.119 382.164 156.609 383.763 155.577C385.372 154.551 386.497 153.176 387.138 151.452H390.388C389.482 154.01 387.935 156.057 385.742 157.598C383.56 159.13 381.164 159.89 378.555 159.89C376.289 159.89 374.19 159.333 372.263 158.223C370.346 157.114 368.815 155.593 367.68 153.661C366.555 151.718 365.992 149.598 365.992 147.307C365.992 145.015 366.56 142.906 367.701 140.973C368.852 139.031 370.388 137.489 372.305 136.348C374.232 135.197 376.305 134.619 378.513 134.619C380.857 134.619 382.992 135.223 384.909 136.432C386.836 137.63 388.357 139.218 389.471 141.202C390.581 143.192 391.138 145.281 391.138 147.473L391.096 148.411H369.18C369.263 149.968 369.747 151.411 370.638 152.744C371.539 154.077 372.69 155.14 374.096 155.932C375.513 156.723 376.982 157.119 378.513 157.119ZM378.513 137.39C377.013 137.39 375.602 137.739 374.284 138.432C372.961 139.13 371.846 140.098 370.93 141.348C370.023 142.588 369.44 144.015 369.18 145.64H387.971C387.539 143.197 386.451 141.213 384.701 139.682C382.951 138.156 380.888 137.39 378.513 137.39Z" fill="#8E51FF"/>
<path d="M398.013 135.244V138.723H398.117C398.669 137.432 399.471 136.463 400.513 135.807C401.555 135.14 403.013 134.744 404.888 134.619V137.869H404.846C402.68 138.077 400.997 138.838 399.805 140.14C398.607 141.447 398.013 143.098 398.013 145.098V159.327H394.93V135.244H398.013Z" fill="#8E51FF"/>
</g>
<defs>
<clipPath id="clip0_995_935">
<rect width="886" height="168" fill="white"/>
</clipPath>
</defs>
</svg>
